<svg width="465" height="61" viewBox="0 0 465 61" fill="none" xmlns="http://www.w3.org/2000/svg">
<path d="M104.016 51.733L109.76 46.7543C113.589 51.5798 119.487 54.3369 126.073 54.3369C135.8 54.3369 139.859 50.3544 139.859 44.457C139.859 38.1768 134.345 36.3389 125.231 34.0411C115.504 31.5906 105.931 28.6798 105.931 17.4217C105.931 7.23542 113.819 0.495518 126.686 0.495518C134.957 0.495518 142.003 3.48287 146.905 9.60962L141.084 14.4344C138.021 10.1457 133.349 7.15898 126.61 7.15898C118.108 7.15898 113.819 11.2179 113.819 16.6559C113.819 22.9359 119.41 24.3912 128.294 26.7651C138.48 29.5224 147.748 32.5097 147.748 43.6909C147.748 54.107 139.859 60.9998 126.15 60.9998C117.112 60.9998 109.3 58.0129 104.016 51.733ZM19.1954 32.1778C16.2162 32.1778 13.8014 34.5931 13.8014 37.5716C13.8014 40.5507 16.2162 42.9655 19.1954 42.9655C22.1745 42.9655 24.5894 40.5507 24.5894 37.5716C24.5894 34.5931 22.1745 32.1778 19.1954 32.1778ZM58.9982 38.5663C58.4951 44.0881 53.688 48.2254 48.1439 48.2254H19.4422C13.8975 48.2254 9.09096 44.0881 8.58776 38.5663C8.01161 32.2467 12.9933 26.9188 19.1954 26.9188H48.3907C54.5928 26.9188 59.5745 32.2467 58.9982 38.5663ZM66.8783 36.142C66.1453 26.4156 57.7693 19.0301 48.0149 19.0301H19.1954C8.49884 19.0301 -0.111534 28.1349 0.707822 39.0016C1.44056 48.7284 9.81664 56.1135 19.5706 56.1135H48.3907C59.0872 56.1135 67.6976 47.0087 66.8783 36.142ZM429.88 54.7964L434.322 49.8179C437.921 53.2641 442.44 54.873 447.342 54.873C453.852 54.873 456.992 52.4989 456.992 48.9754C456.992 45.0696 452.856 44.1506 445.964 42.6954C438.228 41.0106 431.335 38.6366 431.335 30.6712C431.335 23.6253 436.849 18.1874 447.571 18.1874C454.158 18.1874 459.289 20.1783 463.578 24.0848L459.213 29.0628C455.69 25.8462 451.784 24.3145 447.342 24.3145C441.598 24.3145 438.687 26.7654 438.687 29.9054C438.687 33.7352 442.363 34.5775 449.486 36.1086C457.068 37.7941 464.344 39.9384 464.344 48.1331C464.344 55.6389 458.37 60.9998 447.112 60.9998C439.836 60.9998 434.168 58.8555 429.88 54.7964ZM409.969 41.7765H404.071V60.1575H396.796V1.33798H404.071V35.7257H410.351L421.687 19.0301H430.341L416.325 38.7897L431.03 60.1575H422.223L409.969 41.7765ZM371.523 19.0298H378.57L378.723 25.2335H378.876C381.633 20.1023 385.462 18.1876 389.445 18.1876C390.901 18.1876 391.973 18.4173 392.891 18.7237V25.846C392.203 25.6163 390.747 25.3099 389.062 25.3099C382.246 25.3099 378.8 30.1355 378.8 35.19V60.1577H371.523V19.0298ZM332.926 39.632C332.926 47.7501 337.214 54.7964 345.716 54.7964C354.217 54.7964 358.583 47.7501 358.583 39.632C358.583 31.4368 354.217 24.3912 345.716 24.3912C337.214 24.3912 332.926 31.4368 332.926 39.632ZM325.573 39.632C325.573 27.6843 332.926 18.1876 345.792 18.1876C358.736 18.1876 365.935 27.8374 365.935 39.632C365.935 51.35 358.736 60.9998 345.792 60.9998C332.926 60.9998 325.573 51.5031 325.573 39.632ZM325.423 19.0298L312.173 60.1577H304.743L294.864 29.0633H294.711L284.831 60.1577H277.402L264.076 19.0298H271.734L281.308 50.7372H281.461L290.958 19.0298H298.77L308.343 50.8906H308.496L318.07 19.0298H325.423ZM257.031 36.4154C256.572 29.6761 253.202 24.3145 245.926 24.3145C238.728 24.3145 234.898 29.5224 234.208 36.4154H257.031ZM262.699 54.3369C259.002 58.6509 253.677 61.0274 247.036 60.9998C236.428 60.9556 227.742 52.5821 226.949 42.0026C225.925 28.344 233.441 18.1876 246.08 18.1876C257.874 18.1876 264.231 26.9951 264.231 38.2534C264.231 39.4789 264.154 41.3934 264.001 42.4657H234.285C235.051 50.2778 239.569 54.7964 247.228 54.7964C251.747 54.7964 255.193 53.1114 257.644 49.8177L262.699 54.3369ZM214.221 39.5556C214.221 30.5179 209.473 24.5443 201.584 24.5443C193.006 24.5443 189.1 31.8197 189.1 39.7087C189.1 47.3671 193.006 54.6433 201.354 54.6433C209.473 54.6433 214.221 48.286 214.221 39.5556ZM181.748 39.9384C181.748 27.8376 188.87 18.1878 200.435 18.1878C205.873 18.1878 210.621 20.562 213.838 25.0037H213.991V1.33798H221.267V60.1575H214.144L214.068 53.4944H213.915C210.468 58.4725 205.567 60.9998 200.052 60.9998C188.487 60.9998 181.748 51.426 181.748 39.9384ZM168.653 19.0298H175.929V60.1575H168.653V19.0298ZM168.346 1.33798H176.235V11.1415H168.346V1.33798ZM153.107 1.33798H160.382V60.1575H153.107V1.33798Z" fill="white"/>
</svg>
